<mxfile host="app.diagrams.net" modified="2023-06-29T14:20:45.331Z" agent="Mozilla/5.0 (Macintosh; Intel Mac OS X 10_15_7) AppleWebKit/537.36 (KHTML, like Gecko) Chrome/110.0.0.0 Safari/537.36" etag="ieeuPIABRnjOR0lt02dq" version="21.2.1" type="github">
  <diagram name="Page-1" id="RZ-sbcYPbZvdfeO4JO4t">
    <mxGraphModel dx="954" dy="620" grid="1" gridSize="10" guides="1" tooltips="1" connect="1" arrows="1" fold="1" page="1" pageScale="1" pageWidth="827" pageHeight="1169" math="0" shadow="0">
      <root>
        <mxCell id="0" />
        <mxCell id="1" parent="0" />
        <mxCell id="AlLSXUo7sbcn3DVaBx7a-1" value="&lt;meta charset=&quot;utf-8&quot;&gt;&lt;b id=&quot;docs-internal-guid-5ff0fcde-7fff-57f7-ad88-99b0f3b2afe9&quot; style=&quot;font-weight:normal;&quot;&gt;&lt;img src=&quot;https://lh5.googleusercontent.com/GNgcTFhDpjqSN2vDcPruow-RqhK-CM57k7HDgcoyxd9B3zeDJIGJSLtdnf-c4m_90DQfcPbcCR1FICPxom-QkcpGJxDJx6Ns4rT8dt3tW4eahcN-Jpkh0MtnXnobIrfyMy8yIYl1AWPu-mg=s2048&quot; height=&quot;176px;&quot; width=&quot;199px;&quot;&gt;&lt;/b&gt;" style="rounded=1;whiteSpace=wrap;html=1;" vertex="1" parent="1">
          <mxGeometry x="10" y="170" width="330" height="250" as="geometry" />
        </mxCell>
        <mxCell id="AlLSXUo7sbcn3DVaBx7a-3" value="&lt;meta charset=&quot;utf-8&quot;&gt;&lt;b id=&quot;docs-internal-guid-3ea7a7be-7fff-3cb6-ecca-75c145700076&quot; style=&quot;font-weight:normal;&quot;&gt;&lt;img src=&quot;https://lh6.googleusercontent.com/1M7CGkfS1By0BvR2SUwiYhiSd6jVYeh5oI7QB46LRV1vRvkohZqYduDwc-y_6y48ee2eP0jjUnd23b7q4Db6GsUd5QfevkbknViSIGah93FdrRidsptvaP8w3NWJ1IhyKBpyc0PRzKpO-QE=s2048&quot; height=&quot;177px;&quot; width=&quot;312px;&quot;&gt;&lt;/b&gt;" style="rounded=1;whiteSpace=wrap;html=1;" vertex="1" parent="1">
          <mxGeometry x="460" y="170" width="350" height="250" as="geometry" />
        </mxCell>
        <mxCell id="AlLSXUo7sbcn3DVaBx7a-4" value="&lt;font style=&quot;font-size: 18px;&quot;&gt;Duck WPS&lt;/font&gt;" style="text;html=1;strokeColor=none;fillColor=none;align=center;verticalAlign=middle;whiteSpace=wrap;rounded=0;" vertex="1" parent="1">
          <mxGeometry x="50" y="200" width="90" height="30" as="geometry" />
        </mxCell>
        <mxCell id="AlLSXUo7sbcn3DVaBx7a-5" value="&lt;font style=&quot;font-size: 18px;&quot;&gt;Phoenix&lt;br&gt;Web App&lt;br&gt;&lt;/font&gt;" style="text;html=1;strokeColor=none;fillColor=none;align=center;verticalAlign=middle;whiteSpace=wrap;rounded=0;" vertex="1" parent="1">
          <mxGeometry x="690" y="330" width="90" height="30" as="geometry" />
        </mxCell>
      </root>
    </mxGraphModel>
  </diagram>
</mxfile>
